<svg width="24" height="24" viewBox="0 0 24 24" fill="none" xmlns="http://www.w3.org/2000/svg">
    <g clip-path="url(#clip0_299_2591)">
        <path d="M11.631 14.7529L10.9927 16.2149C10.7473 16.7768 9.96968 16.7768 9.72433 16.2149L9.08603 14.7529C8.518 13.4519 7.49559 12.4164 6.22026 11.8503L4.46337 11.0704C3.90479 10.8224 3.90479 10.0099 4.46337 9.76191L6.16538 9.0064C7.47352 8.42573 8.51427 7.35176 9.0726 6.00639L9.71916 4.44844C9.95909 3.87028 10.7579 3.87028 10.9978 4.44843L11.6444 6.0064C12.2027 7.35176 13.2435 8.42573 14.5516 9.0064L16.2536 9.76191C16.8122 10.0099 16.8122 10.8224 16.2536 11.0704L14.4967 11.8503C13.2214 12.4164 12.199 13.4519 11.631 14.7529Z"
              fill="currentColor"/>
        <path d="M17.5627 19.3627L17.3832 19.7741C17.2518 20.0753 16.8348 20.0753 16.7034 19.7741L16.5239 19.3627C16.2039 18.6291 15.6276 18.0451 14.9084 17.7256L14.3554 17.4798C14.0563 17.347 14.0563 16.9123 14.3554 16.7794L14.8775 16.5474C15.6151 16.2197 16.2018 15.614 16.5163 14.8556L16.7006 14.411C16.8291 14.1011 17.2575 14.1011 17.386 14.411L17.5703 14.8556C17.8848 15.614 18.4715 16.2197 19.2092 16.5474L19.7312 16.7794C20.0304 16.9123 20.0304 17.347 19.7312 17.4798L19.1782 17.7256C18.4591 18.0451 17.8827 18.6291 17.5627 19.3627Z"
              fill="currentColor"/>
    </g>
    <defs>
        <clipPath id="clip0_299_2591">
            <rect width="16" height="16" fill="white" transform="translate(4 4)"/>
        </clipPath>
    </defs>
</svg>
