<svg width="currentWidth" height="currentHeight" viewBox="0 0 24 24" fill="none" xmlns="http://www.w3.org/2000/svg">
    <mask id="mask0_22_219" style="mask-type:alpha" maskUnits="userSpaceOnUse" x="0" y="0" width="24" height="24">
        <rect width="24" height="24" fill="currentColor"/>
    </mask>
    <g mask="url(#mask0_22_219)">
        <path d="M6.012 15.2652C6.2285 15.1636 6.45284 15.091 6.685 15.0475C6.917 15.0038 7.15675 14.982 7.40425 14.982H8.012V4.012H7.40425C7.01759 4.012 6.68884 4.14733 6.418 4.418C6.14734 4.68883 6.012 5.01758 6.012 5.40425V15.2652ZM10.2273 14.982H17.988V4.012H10.2273V14.982ZM7.40425 22.2032C6.40575 22.2032 5.55492 21.8516 4.85175 21.1482C4.14842 20.4451 3.79675 19.5943 3.79675 18.5958V5.40425C3.79675 4.40575 4.14842 3.55492 4.85175 2.85175C5.55492 2.14842 6.40575 1.79675 7.40425 1.79675H17.9283C18.5579 1.79675 19.0945 2.0185 19.538 2.462C19.9815 2.9055 20.2033 3.44208 20.2033 4.07175V16.6745C20.2033 16.8215 20.1501 16.9547 20.0438 17.074C19.9374 17.1935 19.7546 17.3136 19.4953 17.4342C19.2818 17.5397 19.1143 17.6934 18.993 17.8953C18.8717 18.0973 18.811 18.3303 18.811 18.5945C18.811 18.8587 18.8718 19.0951 18.9933 19.3038C19.1149 19.5124 19.2822 19.6632 19.495 19.756C19.7165 19.852 19.8899 19.9915 20.0153 20.1745C20.1406 20.3575 20.2033 20.5631 20.2033 20.7913V21.0768C20.2033 21.3881 20.0965 21.6537 19.883 21.8735C19.6693 22.0933 19.4069 22.2032 19.0958 22.2032H7.40425ZM7.40425 19.988H16.8788C16.7916 19.7703 16.7227 19.5487 16.672 19.323C16.6212 19.0975 16.5958 18.8544 16.5958 18.5938C16.5958 18.3483 16.6175 18.1093 16.661 17.877C16.7045 17.6447 16.7771 17.4201 16.8788 17.2033H7.40425C7.00209 17.2033 6.6695 17.3387 6.4065 17.6095C6.1435 17.8802 6.012 18.2089 6.012 18.5958C6.012 18.9979 6.1435 19.3305 6.4065 19.5935C6.6695 19.8565 7.00209 19.988 7.40425 19.988Z"
              fill="currentColor"/>
    </g>
</svg>
