<svg width="24" height="24" viewBox="0 0 24 24" fill="none" xmlns="http://www.w3.org/2000/svg">
<mask id="mask0_20_122" style="mask-type:alpha" maskUnits="userSpaceOnUse" x="0" y="0" width="24" height="24">
<rect width="24" height="24" fill="#D9D9D9"/>
</mask>
<g mask="url(#mask0_20_122)">
<path d="M12 5.08975C11.6808 5.08975 11.4114 4.97992 11.1918 4.76025C10.9723 4.54075 10.8625 4.27142 10.8625 3.95225V1.95225C10.8625 1.63292 10.9723 1.3635 11.1918 1.144C11.4114 0.9245 11.6808 0.81475 12 0.81475C12.3192 0.81475 12.5886 0.9245 12.8083 1.144C13.0278 1.3635 13.1375 1.63292 13.1375 1.95225V3.95225C13.1375 4.27142 13.0278 4.54075 12.8083 4.76025C12.5886 4.97992 12.3192 5.08975 12 5.08975ZM16.8843 7.11575C16.6731 6.90458 16.5675 6.6425 16.5675 6.3295C16.5675 6.01667 16.6731 5.74833 16.8843 5.5245L18.2843 4.0995C18.5121 3.8715 18.7815 3.7575 19.0925 3.7575C19.4033 3.7575 19.6727 3.8715 19.9005 4.0995C20.1157 4.31067 20.2223 4.57583 20.2205 4.895C20.2185 5.21433 20.1118 5.47958 19.9005 5.69075L18.4755 7.11575C18.2643 7.32692 17.9992 7.4325 17.68 7.4325C17.3607 7.4325 17.0954 7.32692 16.8843 7.11575ZM20.0478 13.1375C19.7286 13.1375 19.4593 13.0277 19.2398 12.8082C19.0201 12.5886 18.9103 12.3192 18.9103 12C18.9103 11.6808 19.0201 11.4114 19.2398 11.1917C19.4593 10.9722 19.7286 10.8625 20.0478 10.8625H22.0478C22.3671 10.8625 22.6365 10.9722 22.856 11.1917C23.0755 11.4114 23.1853 11.6808 23.1853 12C23.1853 12.3192 23.0755 12.5886 22.856 12.8082C22.6365 13.0277 22.3671 13.1375 22.0478 13.1375H20.0478ZM12 23.1852C11.6808 23.1852 11.4114 23.0755 11.1918 22.856C10.9723 22.6365 10.8625 22.3671 10.8625 22.0478V20.0478C10.8625 19.7286 10.9723 19.4593 11.1918 19.2398C11.4114 19.0201 11.6808 18.9102 12 18.9102C12.3192 18.9102 12.5886 19.0201 12.8083 19.2398C13.0278 19.4593 13.1375 19.7286 13.1375 20.0478V22.0478C13.1375 22.3671 13.0278 22.6365 12.8083 22.856C12.5886 23.0755 12.3192 23.1852 12 23.1852ZM5.52451 7.11575L4.09951 5.71575C3.87151 5.49192 3.75751 5.22033 3.75751 4.901C3.75751 4.58183 3.87151 4.31467 4.09951 4.0995C4.31467 3.88817 4.58084 3.7825 4.89801 3.7825C5.21534 3.7825 5.47959 3.88817 5.69076 4.0995L7.11576 5.5245C7.33092 5.73967 7.43851 6.00683 7.43851 6.326C7.43851 6.64533 7.33092 6.91058 7.11576 7.12175C6.88793 7.33292 6.62168 7.4375 6.31701 7.4355C6.01251 7.4335 5.74834 7.32692 5.52451 7.11575ZM18.2783 19.9005L16.8783 18.4755C16.6671 18.2477 16.5625 17.9773 16.5645 17.6645C16.5665 17.3515 16.6731 17.0894 16.8843 16.8782C17.0954 16.6671 17.3565 16.5615 17.6675 16.5615C17.9783 16.5615 18.2477 16.6671 18.4755 16.8782L19.9005 18.2782C20.1285 18.4894 20.2383 18.7547 20.23 19.074C20.2217 19.3932 20.1118 19.6687 19.9005 19.9005C19.6727 20.1323 19.3992 20.2483 19.08 20.2483C18.7607 20.2483 18.4934 20.1323 18.2783 19.9005ZM1.95226 13.1375C1.63292 13.1375 1.36351 13.0277 1.14401 12.8082C0.924508 12.5886 0.814758 12.3192 0.814758 12C0.814758 11.6808 0.924508 11.4114 1.14401 11.1917C1.36351 10.9722 1.63292 10.8625 1.95226 10.8625H3.95226C4.27143 10.8625 4.54076 10.9722 4.76026 11.1917C4.97993 11.4114 5.08976 11.6808 5.08976 12C5.08976 12.3192 4.97993 12.5886 4.76026 12.8082C4.54076 13.0277 4.27143 13.1375 3.95226 13.1375H1.95226ZM4.09951 19.9005C3.88434 19.6853 3.77676 19.4192 3.77676 19.102C3.77676 18.7847 3.88434 18.5184 4.09951 18.3033L5.52451 16.8782C5.73568 16.6671 5.99767 16.5615 6.31051 16.5615C6.62351 16.5615 6.89393 16.6671 7.12176 16.8782C7.34959 17.1023 7.46351 17.3717 7.46351 17.6865C7.46351 18.0013 7.34959 18.2727 7.12176 18.5005L5.72176 19.9005C5.49393 20.1285 5.22034 20.2425 4.90101 20.2425C4.58184 20.2425 4.31467 20.1285 4.09951 19.9005ZM12 17.9523C10.3453 17.9523 8.93968 17.3738 7.78301 16.217C6.62617 15.0603 6.04776 13.6547 6.04776 12C6.04776 10.3453 6.62617 8.93967 7.78301 7.783C8.93968 6.62617 10.3453 6.04775 12 6.04775C13.6547 6.04775 15.0603 6.62617 16.217 7.783C17.3738 8.93967 17.9523 10.3453 17.9523 12C17.9523 13.6547 17.3738 15.0603 16.217 16.217C15.0603 17.3738 13.6547 17.9523 12 17.9523ZM12 15.6773C13.0163 15.6773 13.8833 15.3184 14.6008 14.6007C15.3184 13.8832 15.6773 13.0163 15.6773 12C15.6773 10.9837 15.3184 10.1167 14.6008 9.39925C13.8833 8.68158 13.0163 8.32275 12 8.32275C10.9837 8.32275 10.1168 8.68158 9.39926 9.39925C8.68159 10.1167 8.32276 10.9837 8.32276 12C8.32276 13.0163 8.68159 13.8832 9.39926 14.6007C10.1168 15.3184 10.9837 15.6773 12 15.6773Z" fill="#141414"/>
</g>
</svg>
