<svg width="24" height="24" viewBox="0 0 24 24" fill="none" xmlns="http://www.w3.org/2000/svg">
<mask id="mask0_238_2102" style="mask-type:alpha" maskUnits="userSpaceOnUse" x="0" y="0" width="24" height="24">
<rect width="24" height="24" fill="#D9D9D9"/>
</mask>
<g mask="url(#mask0_238_2102)">
<path d="M16 21C15.45 21 14.9792 20.8042 14.5875 20.4125C14.1958 20.0208 14 19.55 14 19V15C14 14.45 14.1958 13.9792 14.5875 13.5875C14.9792 13.1958 15.45 13 16 13H20C20.55 13 21.0208 13.1958 21.4125 13.5875C21.8042 13.9792 22 14.45 22 15V19C22 19.55 21.8042 20.0208 21.4125 20.4125C21.0208 20.8042 20.55 21 20 21H16ZM16 19H20V15H16V19ZM3 18C2.71667 18 2.47917 17.9042 2.2875 17.7125C2.09583 17.5208 2 17.2833 2 17C2 16.7167 2.09583 16.4792 2.2875 16.2875C2.47917 16.0958 2.71667 16 3 16H10C10.2833 16 10.5208 16.0958 10.7125 16.2875C10.9042 16.4792 11 16.7167 11 17C11 17.2833 10.9042 17.5208 10.7125 17.7125C10.5208 17.9042 10.2833 18 10 18H3ZM16 11C15.45 11 14.9792 10.8042 14.5875 10.4125C14.1958 10.0208 14 9.55 14 9V5C14 4.45 14.1958 3.97917 14.5875 3.5875C14.9792 3.19583 15.45 3 16 3H20C20.55 3 21.0208 3.19583 21.4125 3.5875C21.8042 3.97917 22 4.45 22 5V9C22 9.55 21.8042 10.0208 21.4125 10.4125C21.0208 10.8042 20.55 11 20 11H16ZM16 9H20V5H16V9ZM3 8C2.71667 8 2.47917 7.90417 2.2875 7.7125C2.09583 7.52083 2 7.28333 2 7C2 6.71667 2.09583 6.47917 2.2875 6.2875C2.47917 6.09583 2.71667 6 3 6H10C10.2833 6 10.5208 6.09583 10.7125 6.2875C10.9042 6.47917 11 6.71667 11 7C11 7.28333 10.9042 7.52083 10.7125 7.7125C10.5208 7.90417 10.2833 8 10 8H3Z" fill="#141414"/>
</g>
</svg>
