<svg width="24" height="24" viewBox="0 0 24 24" fill="none" xmlns="http://www.w3.org/2000/svg">
<mask id="mask0_20_161" style="mask-type:alpha" maskUnits="userSpaceOnUse" x="0" y="0" width="24" height="24">
<rect width="24" height="24" fill="#D9D9D9"/>
</mask>
<g mask="url(#mask0_20_161)">
<path d="M6.32875 16.5418L7.755 14.0897C6.643 14.0578 5.70233 13.6432 4.933 12.846C4.1635 12.0487 3.77875 11.1 3.77875 10C3.77875 8.86417 4.18041 7.89558 4.98375 7.09425C5.78691 6.29308 6.7565 5.8925 7.8925 5.8925C9.02833 5.8925 9.99683 6.29308 10.798 7.09425C11.5993 7.89558 12 8.86417 12 10C12 10.3833 11.9552 10.7385 11.8655 11.0655C11.7758 11.3925 11.6433 11.704 11.468 12L8.21525 17.6375C8.11991 17.8035 7.99025 17.9363 7.82625 18.0357C7.66241 18.1354 7.48083 18.1853 7.2815 18.1853C6.86233 18.1853 6.54691 18.0027 6.33525 17.6375C6.12375 17.2723 6.12158 16.9071 6.32875 16.5418ZM15.544 16.5477L16.97 14.0897C15.8582 14.0578 14.9185 13.6432 14.151 12.846C13.3837 12.0487 13 11.1 13 10C13 8.86417 13.4007 7.89558 14.202 7.09425C15.0032 6.29308 15.9717 5.8925 17.1075 5.8925C18.2435 5.8925 19.2131 6.29308 20.0162 7.09425C20.8196 7.89558 21.2212 8.86417 21.2212 10C21.2212 10.3833 21.1764 10.7385 21.0867 11.0655C20.9971 11.3925 20.8646 11.704 20.6892 12L17.4305 17.6375C17.3352 17.8035 17.2055 17.9363 17.0415 18.0357C16.8777 18.1354 16.6961 18.1853 16.4967 18.1853C16.0776 18.1853 15.7632 18.0037 15.5535 17.6405C15.344 17.2773 15.3408 16.9131 15.544 16.5477Z" fill="#141414"/>
</g>
</svg>
