<svg width="16" height="16" viewBox="0 0 16 16" fill="none" xmlns="http://www.w3.org/2000/svg">
<g clip-path="url(#clip0_299_2625)">
<path d="M7.63095 10.7529L6.99267 12.2149C6.74731 12.7768 5.96968 12.7768 5.72433 12.2149L5.08603 10.7529C4.518 9.45194 3.49559 8.41636 2.22026 7.85025L0.463366 7.07039C-0.0952109 6.82245 -0.0952098 6.00985 0.463366 5.76191L2.16538 5.0064C3.47352 4.42573 4.51427 3.35176 5.0726 2.00639L5.71916 0.448436C5.95909 -0.129723 6.7579 -0.129724 6.99784 0.448434L7.6444 2.0064C8.20273 3.35176 9.24347 4.42573 10.5516 5.0064L12.2536 5.76191C12.8122 6.00985 12.8122 6.82245 12.2536 7.07039L10.4967 7.85025C9.22141 8.41636 8.199 9.45194 7.63095 10.7529Z" fill="url(#paint0_radial_299_2625)"/>
<path d="M13.5628 15.3627L13.3832 15.7741C13.2519 16.0753 12.8348 16.0753 12.7034 15.7741L12.5239 15.3627C12.2039 14.6291 11.6276 14.0451 10.9084 13.7256L10.3554 13.4798C10.0563 13.347 10.0563 12.9123 10.3554 12.7794L10.8775 12.5474C11.6152 12.2197 12.2018 11.614 12.5163 10.8556L12.7007 10.411C12.8291 10.1011 13.2575 10.1011 13.386 10.411L13.5703 10.8556C13.8848 11.614 14.4715 12.2197 15.2092 12.5474L15.7313 12.7794C16.0304 12.9123 16.0304 13.347 15.7313 13.4798L15.1782 13.7256C14.4591 14.0451 13.8827 14.6291 13.5628 15.3627Z" fill="url(#paint1_radial_299_2625)"/>
</g>
<defs>
<radialGradient id="paint0_radial_299_2625" cx="0" cy="0" r="1" gradientUnits="userSpaceOnUse" gradientTransform="translate(9.93254 7.02231) rotate(78.858) scale(9.85926 9.86406)">
<stop stop-color="#1BA1E3"/>
<stop offset="0.0001" stop-color="#1BA1E3"/>
<stop offset="0.300221" stop-color="#5489D6"/>
<stop offset="0.545524" stop-color="#9B72CB"/>
<stop offset="0.825372" stop-color="#D96570"/>
<stop offset="1" stop-color="#F49C46"/>
</radialGradient>
<radialGradient id="paint1_radial_299_2625" cx="0" cy="0" r="1" gradientUnits="userSpaceOnUse" gradientTransform="translate(9.93257 7.02231) rotate(78.858) scale(9.85926 9.86406)">
<stop stop-color="#1BA1E3"/>
<stop offset="0.0001" stop-color="#1BA1E3"/>
<stop offset="0.300221" stop-color="#5489D6"/>
<stop offset="0.545524" stop-color="#9B72CB"/>
<stop offset="0.825372" stop-color="#D96570"/>
<stop offset="1" stop-color="#F49C46"/>
</radialGradient>
<clipPath id="clip0_299_2625">
<rect width="16" height="16" fill="white"/>
</clipPath>
</defs>
</svg>
