<svg width="24" height="24" viewBox="0 0 24 24" fill="none" xmlns="http://www.w3.org/2000/svg">
<mask id="mask0_44_326" style="mask-type:alpha" maskUnits="userSpaceOnUse" x="0" y="0" width="24" height="24">
<rect width="24" height="24" fill="#D9D9D9"/>
</mask>
<g mask="url(#mask0_44_326)">
<path d="M12 10.9913L8.19576 14.7958C7.98442 15.0069 7.71917 15.1125 7.40001 15.1125C7.08084 15.1125 6.81559 15.0069 6.60426 14.7958C6.39309 14.5844 6.28751 14.3192 6.28751 14C6.28751 13.6808 6.39309 13.4156 6.60426 13.2043L11.1983 8.61025C11.4263 8.38242 11.6935 8.2685 12 8.2685C12.3065 8.2685 12.5738 8.38242 12.8018 8.61025L17.3958 13.2043C17.6069 13.4156 17.7125 13.6808 17.7125 14C17.7125 14.3192 17.6069 14.5844 17.3958 14.7958C17.1844 15.0069 16.9192 15.1125 16.6 15.1125C16.2808 15.1125 16.0156 15.0069 15.8043 14.7958L12 10.9913Z" fill="#141414"/>
</g>
</svg>
