<svg width="currentWidth" height="currentHeight" viewBox="0 0 24 24" fill="none" xmlns="http://www.w3.org/2000/svg">
    <mask id="mask0_20_188" style="mask-type:alpha" maskUnits="userSpaceOnUse" x="0" y="0" width="24" height="24">
        <rect width="24" height="24" fill="currentColor"/>
    </mask>
    <g mask="url(#mask0_20_188)">
        <path d="M11.9998 22.3648C11.4299 22.3648 10.9423 22.1559 10.5368 21.7382C10.1311 21.3208 9.92825 20.8151 9.92825 20.2213H14.0718C14.0718 20.8151 13.8688 21.3208 13.463 21.7382C13.0573 22.1559 12.5696 22.3648 11.9998 22.3648ZM8.988 19.1732C8.69284 19.1732 8.44542 19.0728 8.24575 18.872C8.04609 18.6712 7.94625 18.4223 7.94625 18.1255C7.94625 17.8303 8.04609 17.5829 8.24575 17.3833C8.44542 17.1836 8.69284 17.0838 8.988 17.0838H15.012C15.3072 17.0838 15.5546 17.1836 15.7543 17.3833C15.9539 17.5829 16.0538 17.8304 16.0538 18.1257C16.0538 18.4209 15.9539 18.6693 15.7543 18.871C15.5546 19.0725 15.3072 19.1732 15.012 19.1732H8.988ZM8.19625 16.0357C7.01042 15.3286 6.064 14.3831 5.357 13.1993C4.65017 12.0153 4.29675 10.7263 4.29675 9.3325C4.29675 7.1945 5.04559 5.37708 6.54325 3.88025C8.04109 2.38358 9.85975 1.63525 11.9993 1.63525C14.1389 1.63525 15.9578 2.38358 17.456 3.88025C18.9542 5.37708 19.7033 7.1945 19.7033 9.3325C19.7033 10.7303 19.3498 12.0202 18.643 13.2022C17.936 14.3841 16.9896 15.3286 15.8038 16.0357H8.19625ZM8.88 13.7607H15.12C15.8582 13.2354 16.4274 12.5891 16.8278 11.8217C17.2281 11.0544 17.4283 10.2252 17.4283 9.334C17.4283 7.81567 16.9029 6.53217 15.8523 5.4835C14.8014 4.43467 13.5173 3.91025 12 3.91025C10.4827 3.91025 9.19859 4.43467 8.14775 5.4835C7.09709 6.53217 6.57175 7.81567 6.57175 9.334C6.57175 10.2252 6.77192 11.0544 7.17225 11.8217C7.57259 12.5891 8.14184 13.2354 8.88 13.7607Z"
              fill="currentColor"/>
    </g>
</svg>
