<svg width="currentWidth" height="currentHeight" viewBox="0 0 24 24" fill="none" xmlns="http://www.w3.org/2000/svg">
    <mask id="mask0_1_53" style="mask-type:alpha" maskUnits="userSpaceOnUse" x="0" y="0" width="24" height="24">
        <rect width="24" height="24" fill="currentColor"/>
    </mask>
    <g mask="url(#mask0_1_53)">
        <path d="M3.93425 18.293C3.61509 18.293 3.34567 18.1832 3.126 17.9635C2.9065 17.744 2.79675 17.4747 2.79675 17.1555C2.79675 16.8363 2.9065 16.5669 3.126 16.3473C3.34567 16.1278 3.61509 16.018 3.93425 16.018H20.0658C20.3849 16.018 20.6543 16.1278 20.874 16.3473C21.0935 16.5669 21.2033 16.8363 21.2033 17.1555C21.2033 17.4747 21.0935 17.744 20.874 17.9635C20.6543 18.1832 20.3849 18.293 20.0658 18.293H3.93425ZM3.93425 13.1375C3.61509 13.1375 3.34567 13.0278 3.126 12.8082C2.9065 12.5886 2.79675 12.3192 2.79675 12C2.79675 11.6808 2.9065 11.4114 3.126 11.1917C3.34567 10.9722 3.61509 10.8625 3.93425 10.8625H20.0658C20.3849 10.8625 20.6543 10.9722 20.874 11.1917C21.0935 11.4114 21.2033 11.6808 21.2033 12C21.2033 12.3192 21.0935 12.5886 20.874 12.8082C20.6543 13.0278 20.3849 13.1375 20.0658 13.1375H3.93425ZM3.93425 7.982C3.61509 7.982 3.34567 7.87225 3.126 7.65275C2.9065 7.43308 2.79675 7.16367 2.79675 6.8445C2.79675 6.52533 2.9065 6.256 3.126 6.0365C3.34567 5.81683 3.61509 5.707 3.93425 5.707H20.0658C20.3849 5.707 20.6543 5.81683 20.874 6.0365C21.0935 6.256 21.2033 6.52533 21.2033 6.8445C21.2033 7.16367 21.0935 7.43308 20.874 7.65275C20.6543 7.87225 20.3849 7.982 20.0658 7.982H3.93425Z"
              fill="currentColor"/>
    </g>
</svg>
