<svg width="currentWidth" height="currentHeight" viewBox="0 0 24 24" fill="none" xmlns="http://www.w3.org/2000/svg">
    <mask id="mask0_1_35" style="mask-type:alpha" maskUnits="userSpaceOnUse" x="0" y="0" width="24" height="24">
        <rect width="24" height="24" fill="currentColor"/>
    </mask>
    <g mask="url(#mask0_1_35)">
        <path d="M11.9992 14.275C11.1026 14.275 10.3407 13.9612 9.71349 13.3338C9.08632 12.7063 8.77274 11.9442 8.77274 11.0477V5.08975C8.77274 4.19325 9.08657 3.43125 9.71424 2.80375C10.3419 2.17625 11.1041 1.8625 12.0007 1.8625C12.8974 1.8625 13.6593 2.17625 14.2865 2.80375C14.9137 3.43125 15.2272 4.19325 15.2272 5.08975V11.0477C15.2272 11.9442 14.9134 12.7063 14.2857 13.3338C13.6581 13.9612 12.8959 14.275 11.9992 14.275ZM10.9102 20.275V18.2657C9.32124 18.0451 7.9619 17.3732 6.83224 16.25C5.70274 15.1268 5.01532 13.7643 4.76999 12.1625C4.72882 11.8553 4.80982 11.5928 5.01299 11.3747C5.21632 11.1567 5.47157 11.0477 5.77874 11.0477C6.08607 11.0477 6.34649 11.1536 6.55999 11.3652C6.77365 11.5767 6.91782 11.8362 6.99249 12.1435C7.24565 13.3262 7.84374 14.2935 8.78674 15.0455C9.72957 15.7973 10.8006 16.1732 11.9997 16.1732C13.2159 16.1732 14.2912 15.7932 15.2257 15.033C16.1604 14.2727 16.7543 13.3095 17.0075 12.1435C17.0822 11.8362 17.2263 11.5767 17.44 11.3652C17.6535 11.1536 17.9139 11.0477 18.2212 11.0477C18.5284 11.0477 18.7827 11.1577 18.984 11.3778C19.1853 11.5976 19.2653 11.8612 19.224 12.1685C18.9787 13.737 18.2964 15.0902 17.1772 16.228C16.0579 17.3658 14.6954 18.0451 13.0897 18.2657V20.275C13.0897 20.5837 12.9853 20.8425 12.7765 21.0515C12.5675 21.2603 12.3087 21.3647 12 21.3647C11.6913 21.3647 11.4325 21.2603 11.2235 21.0515C11.0147 20.8425 10.9102 20.5837 10.9102 20.275ZM12 12C12.2698 12 12.496 11.9087 12.6785 11.7262C12.861 11.5437 12.9522 11.3176 12.9522 11.0477V5.08975C12.9522 4.81992 12.861 4.59375 12.6785 4.41125C12.496 4.22875 12.2698 4.1375 12 4.1375C11.7302 4.1375 11.504 4.22875 11.3215 4.41125C11.139 4.59375 11.0477 4.81992 11.0477 5.08975V11.0477C11.0477 11.3176 11.139 11.5437 11.3215 11.7262C11.504 11.9087 11.7302 12 12 12Z"
              fill="currentColor"/>
    </g>
</svg>
