<svg width="currentWidth" height="currentHeight" viewBox="0 0 24 24" fill="none" xmlns="http://www.w3.org/2000/svg">
    <mask id="mask0_39_130" style="mask-type:alpha" maskUnits="userSpaceOnUse" x="0" y="0" width="24" height="24">
        <rect width="24" height="24" fill="currentColor"/>
    </mask>
    <g mask="url(#mask0_39_130)">
        <path d="M9.78701 14.1055L3.24026 11.4565C2.9956 11.3612 2.81535 11.2141 2.69951 11.0153C2.58351 10.8163 2.52551 10.6112 2.52551 10.4C2.52551 10.1888 2.58768 9.98375 2.71201 9.78475C2.83618 9.58592 3.0206 9.43883 3.26526 9.3435L18.962 3.47C19.1898 3.37483 19.4094 3.35617 19.6208 3.414C19.8319 3.472 20.0122 3.57567 20.1615 3.725C20.3107 3.87433 20.4153 4.05459 20.4753 4.26575C20.5353 4.47692 20.5176 4.6965 20.4223 4.9245L14.549 20.6273C14.4537 20.8718 14.3065 21.0562 14.1075 21.1805C13.9087 21.3047 13.7037 21.3668 13.4925 21.3668C13.2812 21.3668 13.0761 21.3088 12.8773 21.193C12.6783 21.077 12.5311 20.8968 12.4358 20.6523L9.78701 14.1055ZM13.4425 17.1088L17.4148 6.47175L6.78376 10.45L11.5523 12.3343L13.4425 17.1088Z"
              fill="currentColor"/>
    </g>
</svg>
