<svg width="24" height="24" viewBox="0 0 24 24" fill="none" xmlns="http://www.w3.org/2000/svg">
<mask id="mask0_25_366" style="mask-type:alpha" maskUnits="userSpaceOnUse" x="0" y="0" width="24" height="24">
<rect width="24" height="24" fill="#D9D9D9"/>
</mask>
<g mask="url(#mask0_25_366)">
<path d="M3.12549 15.8805C2.52449 15.8805 1.99508 15.6516 1.53724 15.1938C1.07941 14.7359 0.850494 14.2065 0.850494 13.6055V11.97C0.850494 11.8437 0.867161 11.7083 0.900494 11.564C0.933828 11.4195 0.971161 11.2869 1.01249 11.1663L4.04824 4.01475C4.21824 3.63359 4.50316 3.31133 4.90299 3.048C5.30283 2.78483 5.71833 2.65325 6.14949 2.65325H17.1852V15.8805L11.4602 21.5615C11.1664 21.8553 10.8237 22.033 10.4322 22.0945C10.0407 22.1562 9.66475 22.0957 9.30424 21.913C8.94775 21.7343 8.68658 21.4692 8.52074 21.1175C8.35474 20.7657 8.32341 20.4015 8.42674 20.025L9.46799 15.8805H3.12549ZM15 14.8273V4.92825H6.14949L3.13749 11.97V13.6055H12.293L11.0147 18.8125L15 14.8273ZM20 2.65325C20.6297 2.65325 21.1662 2.875 21.6097 3.3185C22.0532 3.762 22.275 4.29859 22.275 4.92825V13.6055C22.275 14.2352 22.0532 14.7718 21.6097 15.2153C21.1662 15.6588 20.6297 15.8805 20 15.8805H17.1852V13.6055H20V4.92825H17.1852V2.65325H20Z" fill="#141414"/>
</g>
</svg>
