<svg width="24" height="24" viewBox="0 0 24 24" fill="none" xmlns="http://www.w3.org/2000/svg">
<mask id="mask0_25_367" style="mask-type:alpha" maskUnits="userSpaceOnUse" x="0" y="0" width="24" height="24">
<rect width="24" height="24" fill="#D9D9D9"/>
</mask>
<g mask="url(#mask0_25_367)">
<path d="M20.8745 8.1195C21.4755 8.1195 22.0049 8.34842 22.4628 8.80625C22.9206 9.26408 23.1495 9.7935 23.1495 10.3945V12.03C23.1495 12.1563 23.1328 12.2917 23.0995 12.436C23.0662 12.5805 23.0288 12.7131 22.9875 12.8338L19.9518 19.9853C19.7818 20.3664 19.4968 20.6887 19.097 20.952C18.6972 21.2152 18.2817 21.3468 17.8505 21.3468H6.81476V8.1195L12.5398 2.4385C12.8336 2.14467 13.1763 1.967 13.5678 1.9055C13.9593 1.84383 14.3353 1.90433 14.6958 2.087C15.0523 2.26567 15.3134 2.53083 15.4793 2.8825C15.6453 3.23433 15.6766 3.5985 15.5733 3.975L14.532 8.1195H20.8745ZM9.00001 9.17275V19.0718H17.8505L20.8625 12.03V10.3945H11.707L12.9853 5.1875L9.00001 9.17275ZM4.00001 21.3468C3.37034 21.3468 2.83376 21.125 2.39026 20.6815C1.94676 20.238 1.72501 19.7014 1.72501 19.0718V10.3945C1.72501 9.76483 1.94676 9.22825 2.39026 8.78475C2.83376 8.34125 3.37034 8.1195 4.00001 8.1195H6.81476V10.3945H4.00001V19.0718H6.81476V21.3468H4.00001Z" fill="#141414"/>
</g>
</svg>
